<?xml version="1.0" encoding="UTF-8"?>
<svg version="1.1" xmlns="http://www.w3.org/2000/svg" width="500" height="500">
<path d="M0 0 C165 0 330 0 500 0 C500 165 500 330 500 500 C335 500 170 500 0 500 C0 335 0 170 0 0 Z " fill="#FEFEFE" transform="translate(0,0)"/>
<path d="M0 0 C3.11695549 -0.00150243 6.23389076 -0.00638514 9.35084152 -0.01184845 C30.86723855 -0.04023054 52.33803302 0.26057718 73.8337822 1.24456024 C75.19782401 1.30663445 75.19782401 1.30663445 76.58942223 1.36996269 C91.75958373 2.07701065 106.81756983 3.22838719 121.86893845 5.31096649 C122.93499313 5.45791962 124.00104782 5.60487274 125.0994072 5.75627899 C164.89242959 11.42042452 164.89242959 11.42042452 176.55643845 25.54143524 C179.34177404 29.29666447 179.20031411 32.78653032 178.86893845 37.31096649 C178.2790066 39.99692347 177.65299657 42.46524145 176.80643845 45.06096649 C176.47144333 46.09858124 176.47144333 46.09858124 176.12968063 47.1571579 C170.61417106 63.40727488 159.30364275 76.84433672 144.18143845 84.99846649 C138.0057792 87.9227662 131.48153853 89.66321304 124.86893845 91.31096649 C124.20505647 91.47852416 123.54117449 91.64608183 122.85717487 91.818717 C117.56830882 93.08303126 112.54813705 93.65950051 107.12064743 93.79753876 C106.29006632 93.82549939 105.45948521 93.85346003 104.60373497 93.88226795 C101.85769509 93.97238878 99.11146068 94.05007608 96.3650322 94.12737274 C94.40337928 94.18855719 92.44174525 94.25034945 90.48012924 94.31270599 C85.19435349 94.47780731 79.9082958 94.63069421 74.62204361 94.77968216 C71.28031655 94.87420537 67.93866756 94.97116332 64.59702682 95.06868744 C0.87565251 96.92008529 -62.81849999 97.40608699 -126.56330359 97.48818725 C-131.91689361 97.4953635 -137.27046382 97.50679805 -142.62404251 97.51979828 C-149.21946776 97.53550021 -155.81485071 97.54289526 -162.41029501 97.54091728 C-165.81701958 97.54000447 -169.22360148 97.54306244 -172.6303215 97.55280304 C-185.94050739 97.58808549 -199.19165538 97.41795121 -212.47334671 96.48406219 C-213.53313925 96.41486415 -214.59293179 96.3456661 -215.68483925 96.27437115 C-234.45085667 94.77347765 -250.08126874 81.78159601 -262.06856155 67.93596649 C-270.63814258 56.94768129 -275.44877562 45.36147574 -274.13106155 31.31096649 C-271.66522321 23.41797927 -265.63793669 17.86255119 -258.59199905 13.87346649 C-244.81563938 7.20364394 -231.07268314 6.70461125 -216.06856155 6.24846649 C-213.19724791 6.1506452 -210.32608794 6.04903413 -207.45492935 5.94676971 C-205.37525687 5.87273118 -203.29553163 5.80016363 -201.21576309 5.72887421 C-191.65997439 5.39197428 -182.11099968 4.94273286 -172.5603714 4.48502159 C-149.11074034 3.36389113 -125.65796431 2.4368004 -102.19356155 1.68596649 C-101.18034962 1.65340885 -100.16713768 1.62085121 -99.12322235 1.58730698 C-66.08246674 0.53424044 -33.05751824 0.00991685 0 0 Z " fill="#010101" transform="translate(294.1310615539551,324.6890335083008)"/>
<path d="M0 0 C3.18004921 -0.01064532 6.35999024 -0.02822181 9.5399971 -0.04759216 C31.72979624 -0.17007219 53.72867229 0.23749689 75.83464432 2.2938385 C76.73695219 2.37775408 77.63926006 2.46166965 78.5689106 2.54812813 C143.89431884 8.77463148 143.89431884 8.77463148 159.80339432 27.426651 C183.76719825 60.89434797 167.8994184 141.69015119 165.80339432 180.426651 C165.75765274 181.27261841 165.71191116 182.11858582 165.66478348 182.9901886 C165.12819878 192.80754996 164.56179297 202.62361604 163.80339432 212.426651 C163.74119705 213.32440247 163.67899979 214.22215393 163.61491776 215.14710999 C163.055002 221.75531004 163.055002 221.75531004 160.17839432 224.489151 C156.19505945 226.77588028 154.31905345 227.2330187 149.80339432 226.426651 C147.23522179 224.79951228 145.62592615 223.75401559 143.80339432 221.426651 C143.25639661 218.36281263 143.14215344 216.16309717 143.30339432 213.114151 C143.32603348 212.23025696 143.34867264 211.34636292 143.37199783 210.4356842 C143.47465975 207.09657111 143.63630656 203.76317105 143.80339432 200.426651 C143.87262445 198.96573158 143.94145011 197.50479294 144.00993729 196.0438385 C144.37137896 188.40483518 144.7571126 180.76715697 145.15416336 173.12992859 C146.43254261 148.50736831 146.91778659 123.93403479 146.98417282 99.28104782 C146.99078992 97.27086613 147.00133917 95.26069863 147.01195145 93.25053406 C147.69329631 65.54033439 147.69329631 65.54033439 142.80339432 38.426651 C139.99567184 36.49978264 137.95298786 35.54777329 134.80339432 34.426651 C133.87655838 34.03993225 132.94972244 33.6532135 131.99480057 33.254776 C91.13967981 17.6634225 41.34590254 20.96795143 -1.50074387 21.16236877 C-6.54441395 21.18153533 -11.58804749 21.18552851 -16.63174915 21.1890831 C-22.74843608 21.19427431 -28.86509207 21.20873152 -34.98176193 21.223526 C-36.67171626 21.22634708 -36.67171626 21.22634708 -38.39581108 21.22922516 C-70.50090099 21.29864807 -103.09551837 22.57940869 -134.88410568 27.364151 C-135.87241379 27.50957336 -136.86072189 27.65499573 -137.87897873 27.80482483 C-150.58048946 29.8773554 -162.4357493 33.60387263 -171.19660568 43.426651 C-172.67951914 46.39247792 -172.33230845 49.40548747 -172.32117844 52.65682983 C-172.32329366 53.78728714 -172.32329366 53.78728714 -172.32545161 54.94058198 C-172.32911703 57.47933246 -172.32576276 60.01802751 -172.32258224 62.55677795 C-172.32397643 64.37159774 -172.32587536 66.18641719 -172.32824326 68.00123596 C-172.33274664 71.91633681 -172.33459648 75.83142716 -172.33470535 79.74653053 C-172.33584355 85.93560073 -172.34866601 92.12461099 -172.36426926 98.31365967 C-172.36684211 99.35721518 -172.36941496 100.4007707 -172.37206578 101.47594911 C-172.37733253 103.61019966 -172.38261801 105.74445016 -172.38792181 107.87870061 C-172.42306299 122.29207283 -172.44958246 136.70537109 -172.44709396 151.11878967 C-172.44550664 160.83476695 -172.46151205 170.55054054 -172.49780059 180.26645249 C-172.5162845 185.41036818 -172.52558236 190.5539437 -172.51332474 195.69788551 C-172.50190654 200.53663128 -172.51354828 205.37476771 -172.54295921 210.21343231 C-172.54961193 211.9899733 -172.54771225 213.76656984 -172.53666115 215.54308891 C-172.52282774 217.96796496 -172.53963687 220.39077294 -172.56409836 222.81552124 C-172.54706529 223.87136672 -172.54706529 223.87136672 -172.52968812 224.94854242 C-172.60524208 228.79726396 -173.12413169 230.33793314 -175.59355927 233.3608427 C-178.28055536 235.49327445 -179.33398265 236.11085211 -182.69660568 236.051651 C-183.42879318 236.06454163 -184.16098068 236.07743225 -184.91535568 236.0907135 C-188.41823202 235.07104059 -189.90598013 233.22817084 -192.19660568 230.426651 C-192.69785328 227.68615428 -192.88959453 225.55990247 -192.85602951 222.82466125 C-192.86650188 222.06719848 -192.87697426 221.30973571 -192.88776398 220.52931952 C-192.91669994 217.99501642 -192.91013244 215.46206902 -192.90363693 212.92762756 C-192.91700296 211.10898713 -192.93251374 209.29036138 -192.95000839 207.47175598 C-192.99101353 202.53351193 -193.0008376 197.59564948 -193.00429916 192.65725422 C-193.01234358 187.48571774 -193.04618286 182.31434356 -193.07648849 177.14289856 C-193.12344519 168.45395448 -193.1507521 159.7651196 -193.16584396 151.07606506 C-193.18345527 141.0415557 -193.22918251 131.00748576 -193.2907362 120.97315621 C-193.34957316 111.31271175 -193.39104098 101.65227296 -193.42374802 91.99170685 C-193.43779639 87.88504043 -193.45740231 83.77845663 -193.48142624 79.67183685 C-193.5087784 74.82912573 -193.52072472 69.98660768 -193.52099419 65.14382172 C-193.52344769 63.37054461 -193.53099908 61.59726577 -193.54413795 59.82403564 C-193.63408622 47.0489741 -192.83144431 37.46620022 -184.19660568 27.426651 C-183.74027756 26.84141663 -183.28394943 26.25618225 -182.81379318 25.6532135 C-165.45172241 5.56411591 -130.44572954 5.37596611 -106.19660568 3.426651 C-105.24856064 3.3503949 -104.30051559 3.27413879 -103.32374191 3.1955719 C-68.92347359 0.49832271 -34.48902966 0.092656 0 0 Z " fill="#030303" transform="translate(260.19660568237305,87.57334899902344)"/>
<path d="M0 0 C1.27176086 -0.00394775 2.54352173 -0.00789551 3.8538208 -0.01196289 C21.26972142 -0.0369222 38.35160677 0.71609292 55.65771484 2.60214233 C68.56594941 3.98062768 81.34208022 4.4743869 94.3125 4.4375 C95.08228809 4.4354657 95.85207619 4.4334314 96.64519119 4.43133545 C104.3824422 4.40484057 112.11826176 4.33365909 119.85441208 4.20028687 C122.74661596 4.15328628 125.63888931 4.12103456 128.53131104 4.09075928 C130.52961361 4.06327468 132.5275565 4.01268404 134.52539062 3.96142578 C141.73545725 3.88391876 146.54491037 4.304815 152.625 8.3125 C156.79797242 13.52871552 156.18715282 19.95705006 155.625 26.3125 C155.04158962 30.19217902 154.30751012 33.75358454 152.625 37.3125 C149.6875 39.4375 149.6875 39.4375 146.625 40.3125 C146.01244449 40.49137347 145.39988897 40.67024694 144.76877117 40.85454082 C142.22802541 41.39730297 139.86089595 41.47369914 137.26216125 41.5148468 C136.16723421 41.5341884 135.07230717 41.55353001 133.94420052 41.57345772 C132.74098593 41.58958044 131.53777134 41.60570316 130.2980957 41.62231445 C129.01839338 41.6426367 127.73869106 41.66295895 126.42020988 41.68389702 C122.86271748 41.7393286 119.30516108 41.78757901 115.74753737 41.83373427 C113.47293882 41.8634819 111.19836552 41.89476404 108.92379189 41.92635536 C70.11794392 42.45919977 31.31064822 42.50020068 -7.49822986 42.49761117 C-15.34879978 42.49796687 -23.19932658 42.50972723 -31.04988271 42.5235464 C-38.75155028 42.53660792 -46.45319833 42.5419881 -54.15487689 42.54134732 C-58.69809448 42.54109446 -63.24125771 42.54383596 -67.78446388 42.55452538 C-72.00012161 42.56419719 -76.21567204 42.56429216 -80.43133354 42.55700874 C-81.96802554 42.55596597 -83.50472433 42.5583075 -85.04140472 42.5643692 C-103.69176271 42.63319547 -103.69176271 42.63319547 -108.21264648 38.72314453 C-111.37565905 33.23138247 -112.26278892 28.48654288 -112.4375 22.1875 C-112.49615234 21.31996094 -112.55480469 20.45242187 -112.61523438 19.55859375 C-112.85053984 13.93693222 -112.21293067 10.72028442 -108.375 6.3125 C-105.34206429 4.29054286 -104.73127482 4.06027141 -101.32519531 4.02539062 C-100.51294495 4.01197632 -99.70069458 3.99856201 -98.86383057 3.98474121 C-97.54678131 3.97682556 -97.54678131 3.97682556 -96.203125 3.96875 C-95.28851501 3.9541272 -94.37390503 3.93950439 -93.43157959 3.92443848 C-90.49609824 3.8779158 -87.56068058 3.8438075 -84.625 3.8125 C-73.33427507 3.68942485 -62.33139171 3.48594432 -51.15380859 1.80541992 C-34.28667097 -0.39478365 -16.97371212 0.03902451 0 0 Z " fill="#FBFBFB" transform="translate(225.375,117.6875)"/>
<path d="M0 0 C1.27176086 -0.00394775 2.54352173 -0.00789551 3.8538208 -0.01196289 C21.26972142 -0.0369222 38.35160677 0.71609292 55.65771484 2.60214233 C68.56594941 3.98062768 81.34208022 4.4743869 94.3125 4.4375 C95.08228809 4.4354657 95.85207619 4.4334314 96.64519119 4.43133545 C104.3824422 4.40484057 112.11826176 4.33365909 119.85441208 4.20028687 C122.74661596 4.15328628 125.63888931 4.12103456 128.53131104 4.09075928 C130.52961361 4.06327468 132.5275565 4.01268404 134.52539062 3.96142578 C141.73545725 3.88391876 146.54491037 4.304815 152.625 8.3125 C156.79797242 13.52871552 156.18715282 19.95705006 155.625 26.3125 C155.04158962 30.19217902 154.30751012 33.75358454 152.625 37.3125 C149.6875 39.4375 149.6875 39.4375 146.625 40.3125 C146.01244449 40.49137347 145.39988897 40.67024694 144.76877117 40.85454082 C142.22802541 41.39730297 139.86089595 41.47369914 137.26216125 41.5148468 C136.16723421 41.5341884 135.07230717 41.55353001 133.94420052 41.57345772 C132.74098593 41.58958044 131.53777134 41.60570316 130.2980957 41.62231445 C129.01839338 41.6426367 127.73869106 41.66295895 126.42020988 41.68389702 C122.86271748 41.7393286 119.30516108 41.78757901 115.74753737 41.83373427 C113.47293882 41.8634819 111.19836552 41.89476404 108.92379189 41.92635536 C70.11794392 42.45919977 31.31064822 42.50020068 -7.49822986 42.49761117 C-15.34879978 42.49796687 -23.19932658 42.50972723 -31.04988271 42.5235464 C-38.75155028 42.53660792 -46.45319833 42.5419881 -54.15487689 42.54134732 C-58.69809448 42.54109446 -63.24125771 42.54383596 -67.78446388 42.55452538 C-72.00012161 42.56419719 -76.21567204 42.56429216 -80.43133354 42.55700874 C-81.96802554 42.55596597 -83.50472433 42.5583075 -85.04140472 42.5643692 C-103.69176271 42.63319547 -103.69176271 42.63319547 -108.21264648 38.72314453 C-111.37565905 33.23138247 -112.26278892 28.48654288 -112.4375 22.1875 C-112.49615234 21.31996094 -112.55480469 20.45242187 -112.61523438 19.55859375 C-112.85053984 13.93693222 -112.21293067 10.72028442 -108.375 6.3125 C-105.34206429 4.29054286 -104.73127482 4.06027141 -101.32519531 4.02539062 C-100.51294495 4.01197632 -99.70069458 3.99856201 -98.86383057 3.98474121 C-97.54678131 3.97682556 -97.54678131 3.97682556 -96.203125 3.96875 C-95.28851501 3.9541272 -94.37390503 3.93950439 -93.43157959 3.92443848 C-90.49609824 3.8779158 -87.56068058 3.8438075 -84.625 3.8125 C-73.33427507 3.68942485 -62.33139171 3.48594432 -51.15380859 1.80541992 C-34.28667097 -0.39478365 -16.97371212 0.03902451 0 0 Z M-56.02270508 8.76269531 C-57.22111165 8.82037645 -57.22111165 8.82037645 -58.44372845 8.87922287 C-61.62450443 9.05586224 -64.33769145 9.30006382 -67.375 10.3125 C-70.17230398 10.60361552 -72.95842116 10.85290448 -75.76171875 11.06640625 C-76.57872757 11.13157944 -77.39573639 11.19675262 -78.23750305 11.26390076 C-80.8455703 11.47113166 -83.45401298 11.6731285 -86.0625 11.875 C-87.83140745 12.0146293 -89.60028805 12.15459913 -91.36914062 12.29492188 C-95.70412555 12.63806593 -100.03945446 12.97651656 -104.375 13.3125 C-104.42920701 15.87528699 -104.46877007 18.43691483 -104.5 21 C-104.51675781 21.72123047 -104.53351563 22.44246094 -104.55078125 23.18554688 C-104.58852105 27.31805463 -104.46736267 30.68897127 -102.375 34.3125 C-98.72134892 35.53038369 -95.37104848 35.45072544 -91.56759644 35.43948364 C-90.76343926 35.44104363 -89.95928208 35.44260362 -89.1307565 35.44421089 C-86.42553147 35.44821135 -83.7203622 35.44503453 -81.01513672 35.44189453 C-79.07811449 35.44324931 -77.14109252 35.44502968 -75.20407104 35.44720459 C-69.92533539 35.45177885 -64.64661921 35.44998699 -59.36788321 35.4468255 C-53.81793764 35.44429107 -48.26799373 35.44664347 -42.7180481 35.44821167 C-33.36460066 35.45003474 -24.01116109 35.4476282 -14.65771484 35.44287109 C-3.92751099 35.43747587 6.80267373 35.43915562 17.53287709 35.4446975 C26.78773094 35.44928223 36.04257911 35.44985191 45.29743373 35.44725883 C50.80430148 35.445719 56.31116036 35.44543686 61.8180275 35.44879532 C81.68113457 35.45920467 101.53830635 35.46463786 121.39404297 34.86669922 C122.69470263 34.82797762 123.99536228 34.78925602 125.33543587 34.74936104 C132.46163584 34.50571526 139.5329526 34.05397393 146.625 33.3125 C147.86415102 29.59504693 147.80907713 26.12126619 147.8125 22.25 C147.82474609 21.51716797 147.83699219 20.78433594 147.84960938 20.02929688 C147.85486299 18.12223493 147.74718272 16.21565114 147.625 14.3125 C144.91991896 11.60741896 143.50839349 12.05603175 139.72363281 12.04125977 C137.85701996 12.02597984 137.85701996 12.02597984 135.95269775 12.01039124 C135.2826899 12.00945024 134.61268204 12.00850925 133.92237091 12.00753975 C131.79667511 12.00385168 129.67143617 11.98703819 127.5458374 11.96678162 C121.49858362 11.91174964 115.4512515 11.8814369 109.40380859 11.85620117 C104.98258015 11.83596039 100.56164044 11.80180925 96.140625 11.75390625 C95.39781092 11.74598431 94.65499683 11.73806236 93.88967323 11.72990036 C83.968915 11.60507298 74.26256248 10.97254587 64.40234375 9.79296875 C44.36993785 7.46227939 24.23454684 7.93963396 4.09771729 8.04821777 C-0.13506877 8.06734735 -4.36781104 8.07137405 -8.60063457 8.0749321 C-13.73768161 8.08013049 -18.874692 8.09458735 -24.01171875 8.109375 C-24.95649267 8.11125572 -25.90126659 8.11313644 -26.87467003 8.11507416 C-36.60127692 8.14014402 -46.30694204 8.2783706 -56.02270508 8.76269531 Z " fill="#0B0B0B" transform="translate(225.375,117.6875)"/>
<path d="M0 0 C1.32 0.33 2.64 0.66 4 1 C4.98120464 4.05263664 4.98120464 5.94736336 4 9 C4.99 9.66 5.98 10.32 7 11 C7.1875 13.625 7.1875 13.625 7 16 C4.75 16.6875 4.75 16.6875 2 17 C1.34 16.484375 0.68 15.96875 0 15.4375 C-0.66 14.963125 -1.32 14.48875 -2 14 C-4.92227286 14.73056821 -6.70174565 15.74834789 -9 17.6875 C-11 19 -11 19 -13.75 18.6875 C-14.4925 18.460625 -15.235 18.23375 -16 18 C-15.58578031 13.16743695 -13.53586014 11.17320782 -10 8 C-10.66 7.67 -11.32 7.34 -12 7 C-12 5.35 -12 3.7 -12 2 C-8.53058454 2.45822468 -5.32604951 2.89131683 -2 4 C-1.34 2.68 -0.68 1.36 0 0 Z " fill="#0F0F0F" transform="translate(361,131)"/>
<path d="M0 0 C6.0546875 -0.1953125 6.0546875 -0.1953125 8 0 C10 2 10 2 10.23046875 5.58984375 C10.22647623 7.03912778 10.21171518 8.48841279 10.1875 9.9375 C10.18685547 10.66646484 10.18621094 11.39542969 10.18554688 12.14648438 C10.15912584 15.34930071 10.01906863 17.9427941 9 21 C1.63959083 21.79725902 -5.59760355 22.12886183 -13 22 C-13 21.01 -13 20.02 -13 19 C-11.46875 17.61328125 -11.46875 17.61328125 -9.5 16.3125 C-8.8503125 15.87550781 -8.200625 15.43851563 -7.53125 14.98828125 C-7.0259375 14.66214844 -6.520625 14.33601562 -6 14 C-5.46375 14.309375 -4.9275 14.61875 -4.375 14.9375 C-1.6015043 16.17827439 1.00042837 16.5909675 4 17 C4.25030977 14.58380177 4.25030977 14.58380177 4 12 C3.01 11.34 2.02 10.68 1 10 C1.20625 8.906875 1.4125 7.81375 1.625 6.6875 C2.40346525 2.9161599 2.40346525 2.9161599 0 0 Z " fill="#F5F5F5" transform="translate(363,130)"/>
<path d="M0 0 C1.32 0.66 2.64 1.32 4 2 C3.814375 2.61875 3.62875 3.2375 3.4375 3.875 C2.76313824 6.04160178 2.76313824 6.04160178 4 8 C0.37 8 -3.26 8 -7 8 C-7 7.01 -7 6.02 -7 5 C-5.46875 3.61328125 -5.46875 3.61328125 -3.5 2.3125 C-2.8503125 1.87550781 -2.200625 1.43851563 -1.53125 0.98828125 C-1.0259375 0.66214844 -0.520625 0.33601562 0 0 Z " fill="#EDEDED" transform="translate(357,144)"/>
<path d="M0 0 C0 2.62113708 -0.31292445 4.50935112 -1 7 C-2.175625 7.2165625 -2.175625 7.2165625 -3.375 7.4375 C-5.96421018 7.87798925 -5.96421018 7.87798925 -8 9 C-6.90101298 5.70303895 -6.05402613 4.95329411 -3.4375 2.8125 C-2.79683594 2.28269531 -2.15617187 1.75289063 -1.49609375 1.20703125 C-0.75552734 0.60955078 -0.75552734 0.60955078 0 0 Z " fill="#EBEBEB" transform="translate(454,397)"/>
</svg>
