<svg xmlns="http://www.w3.org/2000/svg" viewBox="0 0 48 48" preserveAspectRatio="xMidYMid meet"><path fill="#f2f2f2" d="M0 0h48v48H0z"/><path fill="#0e0e0e" d="M32 3c1.937-.081 3.875-.139 5.812-.188l3.27-.105C44 3 44 3 45.653 4.089c2.899 4.112 1.864 10.151 1.848 15.052-.001 2.154.041 4.305.085 6.459q.008 2.069.008 4.138l.021 3.783C46.802 38.12 45.267 39.712 42 43c-3.705 2.09-6.789 2.196-11 2v-2l2.082-.516 2.73-.734 2.708-.703C41.554 39.766 42.369 38.852 44 36c.414-3.389.414-3.389.293-7.172l-.013-2.068c-.017-2.17-.054-4.34-.092-6.51q-.023-2.213-.042-4.426Q44.095 10.412 44 5H31z"/><path fill="#1d1d1c" d="M13 15c-1.407 3.401-3.029 4.892-6 7 11.537.17 11.537.17 23-1v2c-2.944 1.671-5.174 2.277-8.547 2.414l-2.558.117-2.645.094-2.691.117Q10.28 25.883 7 26l3 2.375L13 31v2c-3.039-1.41-5.594-3.089-8.25-5.125l-2.141-1.633L1 25c1.416-3.392 3.042-5.097 6-7.25l2.125-1.578C11 15 11 15 13 15"/><path fill="#020202" d="M30 21v2c-2.991 1.722-5.107 2.242-8.547 2.195l-2.558-.019-2.645-.051-2.691-.027A843 843 0 0 1 7 25v-1l2.344-.148C16.214 23.358 23.258 21 30 21"/><path fill="#212121" d="M44 36h2c-.565 3.279-1.37 4.934-4 7-3.77 1.936-6.791 2.196-11 2v-2l2.082-.516 2.73-.734 2.708-.703C41.393 39.834 42.265 38.522 44 36"/><path fill="#1a1a1a" d="M13 15c-1.389 3.356-2.917 5.073-6 7H5c1.523-3.681 3.68-7 8-7"/><path fill="#4a4a4a" d="M30 21v2c-2.354 1.429-3.48 2.087-6.25 1.625L22 24v-2c2.763-.597 5.16-1 8-1"/><path fill="#171717" d="M6 26c5.875 3.625 5.875 3.625 7 7-2.867-1.285-4.976-2.571-7-5z"/><path fill="#353535" d="M11 15h2c-1.75 3.875-1.75 3.875-4 5z"/></svg>