<?xml version="1.0" standalone="no"?>
<!DOCTYPE svg PUBLIC "-//W3C//DTD SVG 20010904//EN"
 "http://www.w3.org/TR/2001/REC-SVG-20010904/DTD/svg10.dtd">
<svg version="1.0" xmlns="http://www.w3.org/2000/svg"
 width="48.000000pt" height="48.000000pt" viewBox="0 0 48.000000 48.000000"
 preserveAspectRatio="xMidYMid meet">

<g transform="translate(0.000000,48.000000) scale(0.100000,-0.100000)"
fill="#000000" stroke="none">
<path d="M190 431 c0 -47 -12 -52 -36 -16 -9 14 -19 25 -23 25 -4 0 -26 -16
-50 -36 l-42 -37 22 -23 c27 -29 20 -49 -21 -57 -30 -6 -31 -9 -28 -49 2 -36
7 -44 26 -46 34 -5 47 -38 26 -69 -17 -26 -16 -27 15 -55 35 -32 53 -35 71
-13 20 24 38 18 45 -15 6 -26 11 -30 41 -30 52 0 75 16 68 45 -7 27 5 32 34
14 27 -17 95 28 86 56 -19 62 -17 72 15 83 32 11 35 19 25 71 -6 29 -9 31 -35
26 -37 -8 -49 17 -24 45 16 18 17 23 4 46 -18 35 -36 40 -59 19 -26 -23 -58
-12 -62 23 -3 25 -7 27 -50 30 l-48 3 0 -40z m80 -6 c0 -40 64 -61 90 -30 11
13 14 13 26 -2 10 -15 10 -21 -3 -35 -10 -12 -13 -26 -8 -48 6 -28 10 -31 36
-28 44 7 58 -47 15 -58 -33 -8 -50 -54 -30 -82 12 -17 11 -22 -6 -37 -18 -16
-24 -16 -45 -5 -21 11 -28 10 -50 -4 -19 -12 -24 -23 -20 -37 5 -16 2 -19 -24
-19 -23 0 -30 5 -33 22 -4 32 -53 46 -79 22 -18 -16 -20 -16 -39 1 -18 17 -19
19 -4 45 15 24 15 29 0 58 -10 20 -24 32 -36 32 -30 0 -26 38 5 50 14 5 30 21
37 35 9 21 8 28 -7 45 -18 20 -18 21 3 43 l22 22 24 -30 c23 -28 24 -29 49
-12 22 14 25 22 20 47 -5 28 -4 30 26 30 26 0 31 -4 31 -25z"/>
<path d="M190 302 c-38 -39 -40 -83 -5 -117 49 -50 130 -24 141 46 7 44 -25
86 -73 95 -27 5 -37 1 -63 -24z m82 -9 c38 -34 12 -113 -38 -113 -26 0 -54 34
-54 66 0 22 42 64 63 64 6 0 19 -7 29 -17z"/>
</g>
</svg>
