<?xml version="1.0" encoding="UTF-8"?>
<svg version="1.1" xmlns="http://www.w3.org/2000/svg" width="48" height="48">
<path d="M0 0 C15.84 0 31.68 0 48 0 C48 15.84 48 31.68 48 48 C32.16 48 16.32 48 0 48 C0 32.16 0 16.32 0 0 Z " fill="#F1F1F0" transform="translate(0,0)"/>
<path d="M0 0 C0.64582031 0.36738281 1.29164062 0.73476562 1.95703125 1.11328125 C4.16106208 2.27218848 6.30436476 2.97452896 8.6875 3.6875 C13.23962282 5.13947021 16.46243889 7.06420133 19.3125 11 C21.54026344 18.08833823 19.19735379 26.07821188 18 33.1875 C13.00588593 34.56088137 8.11522539 34.18214121 3 33.9375 C2.11054688 33.91042969 1.22109375 33.88335937 0.3046875 33.85546875 C-4.55955618 33.63040673 -8.06252517 33.33900602 -12 30.1875 C-16.20116083 25.40284461 -17.3109444 22.68402488 -17.2109375 16.43359375 C-16.77476666 11.789182 -14.45863283 9.62574915 -11.1875 6.5 C-8.10952377 4.26695842 -5.65217952 3.14402321 -2 2.1875 C-6.88682003 0.55855999 -10.77540068 0.81389343 -15.6875 2.3125 C-19.63580496 4.5473896 -21.0944234 6.07145453 -23 10.1875 C-23.44829907 13.99163782 -23.73969869 17.70810261 -22 21.1875 C-21.95977609 23.5204866 -21.95679753 25.85456666 -22 28.1875 C-20.02 27.8575 -18.04 27.5275 -16 27.1875 C-17.1875 28.6875 -17.1875 28.6875 -19 30.1875 C-21.61328125 30.28125 -21.61328125 30.28125 -24 30.1875 C-27.96166847 11.58180701 -27.96166847 11.58180701 -24 5.3125 C-17.89338034 -1.94339921 -8.53966344 -4.38843816 0 0 Z " fill="#EDEDED" transform="translate(27,7.8125)"/>
<path d="M0 0 C0.64582031 0.36738281 1.29164062 0.73476562 1.95703125 1.11328125 C4.16106208 2.27218848 6.30436476 2.97452896 8.6875 3.6875 C13.23962282 5.13947021 16.46243889 7.06420133 19.3125 11 C21.54026344 18.08833823 19.19735379 26.07821188 18 33.1875 C13.00588593 34.56088137 8.11522539 34.18214121 3 33.9375 C2.11054688 33.91042969 1.22109375 33.88335937 0.3046875 33.85546875 C-4.55955618 33.63040673 -8.06252517 33.33900602 -12 30.1875 C-16.20116083 25.40284461 -17.3109444 22.68402488 -17.2109375 16.43359375 C-16.77476666 11.789182 -14.45863283 9.62574915 -11.1875 6.5 C-8.10952377 4.26695842 -5.65217952 3.14402321 -2 2.1875 C-6.88682003 0.55855999 -10.77540068 0.81389343 -15.6875 2.3125 C-19.63580496 4.5473896 -21.0944234 6.07145453 -23 10.1875 C-23.44829907 13.99163782 -23.73969869 17.70810261 -22 21.1875 C-21.95977609 23.5204866 -21.95679753 25.85456666 -22 28.1875 C-20.02 27.8575 -18.04 27.5275 -16 27.1875 C-17.1875 28.6875 -17.1875 28.6875 -19 30.1875 C-21.61328125 30.28125 -21.61328125 30.28125 -24 30.1875 C-27.96166847 11.58180701 -27.96166847 11.58180701 -24 5.3125 C-17.89338034 -1.94339921 -8.53966344 -4.38843816 0 0 Z M-12.375 10.125 C-15.52986964 14.12925762 -15.35066171 18.19057067 -15 23.1875 C-13.17823603 27.40632183 -11.12855389 29.25051091 -7 31.1875 C-4.17475434 31.51813314 -1.40079032 31.42593298 1.4375 31.3125 C6.44950711 31.16367184 11.05131502 31.1679611 16 32.1875 C16.33910994 30.14678485 16.67102704 28.10487379 17 26.0625 C17.2784375 24.35707031 17.2784375 24.35707031 17.5625 22.6171875 C18.48651452 16.28338629 18.48651452 16.28338629 16.375 10.5 C12.07609228 6.31422143 8.49680464 4.99947124 2.5625 4.8125 C-3.52884227 4.99457817 -7.5791045 6.21255894 -12.375 10.125 Z " fill="#191919" transform="translate(27,7.8125)"/>
<path d="M0 0 C-1.23448009 3.70344028 -3.23334341 5.30250982 -6 8 C-7.18306728 10.36613456 -7.13354608 11.86780736 -7.125 14.5 C-7.12757812 15.2940625 -7.13015625 16.088125 -7.1328125 16.90625 C-7.13277996 19.05918534 -7.13277996 19.05918534 -6 21 C-5.95977609 23.3329866 -5.95679753 25.66706666 -6 28 C-4.02 27.67 -2.04 27.34 0 27 C-1.1875 28.5 -1.1875 28.5 -3 30 C-5.61328125 30.09375 -5.61328125 30.09375 -8 30 C-11.71364835 12.5591158 -11.71364835 12.5591158 -8.984375 6.890625 C-4.25774793 0 -4.25774793 0 0 0 Z " fill="#1C1C1C" transform="translate(11,8)"/>
<path d="M0 0 C0.33 0 0.66 0 1 0 C1.07347656 1.01320313 1.07347656 1.01320313 1.1484375 2.046875 C1.22320312 2.93890625 1.29796875 3.8309375 1.375 4.75 C1.44460938 5.63171875 1.51421875 6.5134375 1.5859375 7.421875 C2.16906575 11.05267354 3.11161669 13.25490432 5.9375 15.625 C10.45185611 17.65185376 15.12813377 18.27476597 20 19 C20 19.33 20 19.66 20 20 C8.05644699 20.56475645 8.05644699 20.56475645 4 17 C0.5083738 13.02342572 -1.1419253 10.70973179 -1.125 5.4375 C-1.12886719 4.22900391 -1.12886719 4.22900391 -1.1328125 2.99609375 C-1 1 -1 1 0 0 Z " fill="#181818" transform="translate(11,21)"/>
<path d="M0 0 C2.97 0.33 5.94 0.66 9 1 C9 1.66 9 2.32 9 3 C8.01 3.33 7.02 3.66 6 4 C9.32086771 6.77000825 9.32086771 6.77000825 13 9 C13 9.66 13 10.32 13 11 C9.12867972 10.42647107 6.91827204 8.51295648 4 6 C3.67 6.99 3.34 7.98 3 9 C2.34 9 1.68 9 1 9 C0.67 6.03 0.34 3.06 0 0 Z " fill="#232323" transform="translate(21,21)"/>
<path d="M0 0 C1.35158203 0.15275391 1.35158203 0.15275391 2.73046875 0.30859375 C3.41753906 0.39238281 4.10460937 0.47617188 4.8125 0.5625 C4.8125 0.8925 4.8125 1.2225 4.8125 1.5625 C4.01585938 1.64886719 3.21921875 1.73523438 2.3984375 1.82421875 C-4.33864866 2.71757932 -8.56622509 3.4547751 -13.1875 8.5625 C-14.56004588 10.71230497 -14.56004588 10.71230497 -15.1875 12.5625 C-15.5175 10.9125 -15.8475 9.2625 -16.1875 7.5625 C-14.92177767 6.41102339 -13.64972094 5.26650686 -12.375 4.125 C-11.66730469 3.48691406 -10.95960937 2.84882813 -10.23046875 2.19140625 C-6.75621193 -0.57869909 -4.23308005 -0.49477559 0 0 Z " fill="#2D2D2D" transform="translate(27.1875,11.4375)"/>
<path d="M0 0 C2.97 0.33 5.94 0.66 9 1 C9 1.66 9 2.32 9 3 C6.69 3.33 4.38 3.66 2 4 C2 5.65 2 7.3 2 9 C1.67 9 1.34 9 1 9 C0.67 6.03 0.34 3.06 0 0 Z " fill="#0D0D0D" transform="translate(21,21)"/>
<path d="M0 0 C-0.33 0.66 -0.66 1.32 -1 2 C-4.96 1.67 -8.92 1.34 -13 1 C-13 0.67 -13 0.34 -13 0 C-4.57142857 -1.28571429 -4.57142857 -1.28571429 0 0 Z " fill="#343434" transform="translate(38,39)"/>
<path d="M0 0 C0.66 0.33 1.32 0.66 2 1 C1.67 5.29 1.34 9.58 1 14 C0.67 14 0.34 14 0 14 C-0.19532961 12.2300132 -0.38098882 10.45895721 -0.5625 8.6875 C-0.66691406 7.70136719 -0.77132812 6.71523438 -0.87890625 5.69921875 C-1 3 -1 3 0 0 Z " fill="#444444" transform="translate(44,27)"/>
<path d="M0 0 C0.66 0 1.32 0 2 0 C0.77065985 3.68802044 -0.93859378 4.72356973 -4 7 C-4.66 6.67 -5.32 6.34 -6 6 C-4 4 -2 2 0 0 Z " fill="#161616" transform="translate(9,8)"/>
</svg>
