<?xml version="1.0" encoding="UTF-8"?>
<svg version="1.1" xmlns="http://www.w3.org/2000/svg" width="500" height="500">
<path d="M0 0 C165 0 330 0 500 0 C500 165 500 330 500 500 C335 500 170 500 0 500 C0 335 0 170 0 0 Z " fill="#FEFEFE" transform="translate(0,0)"/>
<path d="M0 0 C1.98969563 -0.00408554 3.97939087 -0.00836827 5.96908569 -0.01283264 C12.27236915 -0.02428939 18.57561579 -0.02302664 24.87890625 -0.01953125 C25.95122372 -0.01926437 27.02354118 -0.0189975 28.12835312 -0.01872253 C114.63445093 0.0083639 114.63445093 0.0083639 157.44140625 6.16796875 C158.55161133 6.32523437 159.66181641 6.4825 160.80566406 6.64453125 C175.49363031 8.79821875 193.78190388 11.59003324 203.75390625 23.79296875 C204.24503906 24.38335937 204.73617188 24.97375 205.2421875 25.58203125 C208.4202136 29.78489312 208.09448771 34.10503248 207.44140625 39.16796875 C202.54808107 57.63461776 191.6313023 73.65878486 175.109375 83.56640625 C159.14466122 92.07748145 141.7081837 93.39736345 123.96875 93.765625 C122.3958609 93.80448113 120.82299015 93.84408633 119.25013733 93.88438416 C115.12344943 93.98819699 110.99659881 94.08231335 106.86962891 94.1741333 C102.8029236 94.26611451 98.73643279 94.36664482 94.66992188 94.46679688 C89.78491801 94.58664337 84.89989639 94.70527667 80.01473999 94.8187561 C72.28673442 94.99864301 64.55930289 95.18668599 56.83251953 95.41357422 C5.45456012 96.9181977 -45.91405874 97.35725492 -97.31046414 97.35307992 C-103.72052328 97.35343377 -110.13052894 97.36515474 -116.54057109 97.37901515 C-122.86390832 97.39217881 -129.18722177 97.39745244 -135.51057255 97.39681607 C-139.22660747 97.39656577 -142.94257548 97.39915643 -146.65859604 97.40999413 C-172.7011168 97.48047325 -172.7011168 97.48047325 -185.44970703 96.34106445 C-186.25637754 96.27186641 -187.06304806 96.20266836 -187.89416313 96.13137341 C-206.48779396 94.17484784 -222.27066663 81.10131115 -234.05859375 67.23046875 C-242.23440992 56.33534393 -246.94619326 44.89874998 -245.55859375 31.16796875 C-243.02728674 23.27833429 -237.08873031 17.73272299 -230.01953125 13.73046875 C-217.41469129 7.6278373 -204.79960365 6.58618868 -191.05859375 6.04296875 C-189.27625337 5.9636158 -187.49394574 5.88352427 -185.71166992 5.80273438 C-172.97079329 5.24092384 -160.22578191 4.86890344 -147.4765625 4.56201172 C-135.49494126 4.26583166 -123.53012319 3.73480714 -111.55859375 3.16796875 C-94.35432478 2.35535046 -77.15811934 1.82023743 -59.9375 1.50976562 C-52.14334301 1.36512582 -44.36049182 1.17869866 -36.57373142 0.79916096 C-24.37706654 0.20870053 -12.20930257 0.0063076 0 0 Z " fill="#000000" transform="translate(265.55859375,324.83203125)"/>
<path d="M0 0 C5.33205484 0.01716721 10.66366265 0.00683434 15.99570274 -0.01031113 C37.29233062 -0.0683816 58.50410525 0.24717561 79.75463867 1.72705078 C80.6093318 1.78529652 81.46402493 1.84354225 82.34461784 1.90355301 C151.11581807 6.72346472 151.11581807 6.72346472 169.87573242 25.52001953 C195.88668668 56.66813726 179.29294243 143.23358007 177.57427979 180.40863037 C177.44272045 183.29272494 177.31793461 186.17702619 177.19555664 189.06152344 C177.0159075 193.27134914 176.82153131 197.48016725 176.61175537 201.68859863 C176.53885855 203.17578987 176.46992362 204.66318164 176.40533447 206.15075684 C176.31655715 208.14949167 176.20803378 210.14732078 176.09838867 212.14501953 C176.04303955 213.24144775 175.98769043 214.33787598 175.93066406 215.4675293 C175.24114248 219.5612432 173.54557621 222.2442215 170.68823242 225.20361328 C167.35636176 226.96210058 165.1547627 226.90373815 161.43823242 226.39111328 C158.70302818 224.76802505 157.23530758 223.89342361 155.43823242 221.39111328 C154.67072044 217.99083918 154.82643795 214.73236392 155.00073242 211.26611328 C155.02876953 209.93580078 155.02876953 209.93580078 155.05737305 208.57861328 C155.17687187 204.12163007 155.4854519 199.70137272 155.92407227 195.26513672 C156.45792607 189.48523998 156.7507409 183.71387609 156.97338867 177.91455078 C157.01654709 176.81861099 157.05970551 175.7226712 157.10417175 174.59352112 C157.24237682 170.98457783 157.37307128 167.37544456 157.50073242 163.76611328 C157.5449231 162.51943878 157.58911377 161.27276428 157.63464355 159.98831177 C158.34034775 139.47663318 158.65869124 118.97441256 158.68455124 98.45093536 C158.68819663 96.34925083 158.69549313 94.2476065 158.7036438 92.14593506 C158.75298661 77.73272051 158.56702703 63.66019222 156.43823242 49.39111328 C156.22715497 47.28722012 156.01829153 45.18310156 155.81323242 43.07861328 C155.27013293 40.33409522 154.97386538 38.88956863 152.91870117 36.97705078 C150.80071473 35.84688286 148.72490779 35.11937788 146.43823242 34.39111328 C145.29741211 33.90964844 145.29741211 33.90964844 144.13354492 33.41845703 C129.69469502 27.50347646 113.9951401 25.94099139 98.62573242 24.20361328 C97.52408249 24.07660034 97.52408249 24.07660034 96.400177 23.94702148 C76.25691843 21.65452562 56.06250516 21.22971423 35.80541992 21.18798828 C33.69054647 21.18100902 31.57567323 21.17396806 29.46080017 21.16687012 C22.74494158 21.14760558 16.02911564 21.14269552 9.31323242 21.14111328 C8.17168575 21.14052414 7.03013908 21.139935 5.85400009 21.139328 C-28.04163923 21.12697025 -61.78211446 21.29698107 -95.56176758 24.39111328 C-97.29237746 24.5427275 -99.02300906 24.69409415 -100.75366211 24.84521484 C-105.61094597 25.27710949 -110.46189904 25.75814074 -115.31176758 26.26611328 C-115.99765961 26.33511841 -116.68355164 26.40412354 -117.39022827 26.47521973 C-132.73592469 28.0705726 -148.90221431 31.43949295 -159.56176758 43.39111328 C-161.04468104 46.3569402 -160.69747034 49.36994976 -160.68634033 52.62129211 C-160.68845555 53.75174943 -160.68845555 53.75174943 -160.69061351 54.90504426 C-160.69427893 57.44379474 -160.69092465 59.98248979 -160.68774414 62.52124023 C-160.68913832 64.33606002 -160.69103725 66.15087947 -160.69340515 67.96569824 C-160.69790853 71.88079909 -160.69975838 75.79588944 -160.69986725 79.71099281 C-160.70100544 85.90006302 -160.71382791 92.08907327 -160.72943115 98.27812195 C-160.73200401 99.32167746 -160.73457686 100.36523298 -160.73722768 101.44041139 C-160.74249443 103.57466194 -160.74777991 105.70891244 -160.75308371 107.84316289 C-160.78822488 122.25653511 -160.81474436 136.66983337 -160.81225586 151.08325195 C-160.81066853 160.79922923 -160.82667394 170.51500282 -160.86296248 180.23091477 C-160.88144639 185.37483046 -160.89074426 190.51840598 -160.87848663 195.66234779 C-160.86706843 200.50109356 -160.87871017 205.33922999 -160.90812111 210.17789459 C-160.91477383 211.95443558 -160.91287415 213.73103212 -160.90182304 215.50755119 C-160.88798964 217.93242724 -160.90479876 220.35523522 -160.92926025 222.77998352 C-160.91222719 223.835829 -160.91222719 223.835829 -160.89485002 224.9130047 C-160.96975627 228.72873199 -161.48650111 230.29804379 -163.91770554 233.30430889 C-167.01008925 235.7449475 -168.63061225 236.39111328 -172.56176758 236.39111328 C-176.53648821 234.86237458 -178.18030422 233.96330831 -180.56176758 230.39111328 C-180.77520767 227.88347363 -180.87303658 225.4834157 -180.88061523 222.97389221 C-180.89064103 222.21208788 -180.90066683 221.45028355 -180.91099644 220.66539425 C-180.94212704 218.10465572 -180.95898994 215.54402383 -180.97583008 212.9831543 C-180.99494593 211.14998066 -181.0148471 209.31681507 -181.03547668 207.48365784 C-181.0885439 202.49564212 -181.12830882 197.50760783 -181.16407394 192.51944089 C-181.18672569 189.40078613 -181.21167874 186.28215792 -181.23733521 183.16352654 C-181.31701331 173.40000896 -181.3886268 163.63648145 -181.44871616 153.8728233 C-181.51806751 142.61459292 -181.61367714 131.35699655 -181.73239899 120.09918076 C-181.82264078 111.39167839 -181.88941982 102.68419002 -181.93860626 93.97635978 C-181.96847186 88.77897068 -182.00807274 83.58210199 -182.07208252 78.38501167 C-182.13172491 73.48890314 -182.16206595 68.59345263 -182.17059898 63.69699669 C-182.17862839 61.90717922 -182.1968851 60.11737145 -182.22654152 58.32778168 C-182.43623577 45.14517747 -180.62043444 35.73294064 -171.43676758 25.57861328 C-157.85665132 13.0622728 -140.35388261 8.79860456 -122.56176758 6.39111328 C-121.23435547 6.20983887 -121.23435547 6.20983887 -119.88012695 6.02490234 C-80.20651485 0.81892393 -39.96019859 -0.12976038 0 0 Z " fill="#030303" transform="translate(248.561767578125,87.60888671875)"/>
<path d="M0 0 C0.93650391 -0.03738281 1.87300781 -0.07476562 2.83789062 -0.11328125 C4.19237305 -0.13068359 4.19237305 -0.13068359 5.57421875 -0.1484375 C6.79564575 -0.1781665 6.79564575 -0.1781665 8.04174805 -0.20849609 C11.5039492 0.68115671 12.47128073 2.3716833 14.3125 5.375 C15.2097168 8.81323242 15.2097168 8.81323242 15.76171875 12.73046875 C15.91614189 13.78298576 15.91614189 13.78298576 16.07368469 14.85676575 C16.39743849 17.09016971 16.69878298 19.32595758 17 21.5625 C17.21277602 23.04512588 17.42695651 24.52755091 17.64257812 26.00976562 C19.14673449 36.47645763 20.48325467 46.78821015 20.3125 57.375 C14.45441598 61.27693936 8.53947288 60.7702647 1.6875 60.8125 C-8.37573642 61.01928334 -18.1704945 61.75283907 -28.125 63.25 C-29.30642578 63.42619873 -30.48785156 63.60239746 -31.70507812 63.78393555 C-36.69823923 64.5487135 -41.67463749 65.35884526 -46.63671875 66.3046875 C-58.28924206 68.4178016 -69.91495156 68.73983844 -81.73138428 68.84777832 C-83.64980562 68.86582586 -85.56817206 68.8913764 -87.48638916 68.92468262 C-90.2090089 68.96647709 -92.92944905 68.97286187 -95.65234375 68.96875 C-96.47342117 68.98500427 -97.2944986 69.00125854 -98.14045715 69.01800537 C-102.33548678 68.96829702 -104.38170099 68.55945651 -108.06469727 66.33789062 C-113.56325921 60.12635309 -114.1300037 53.8948088 -113.98046875 45.84375 C-113.97622391 44.96722778 -113.97197906 44.09070557 -113.96760559 43.18762207 C-113.9509513 40.41642177 -113.91332509 37.64597664 -113.875 34.875 C-113.85993599 32.98438558 -113.8462506 31.09375964 -113.83398438 29.203125 C-113.80109139 24.59346361 -113.74940255 19.98435938 -113.6875 15.375 C-112.3675 14.715 -111.0475 14.055 -109.6875 13.375 C-109.6875 12.055 -109.6875 10.735 -109.6875 9.375 C-96.09303495 1.20981778 -70.18525549 4.28656602 -54.41021729 3.44171143 C-48.0410015 3.10025862 -41.67211575 2.75296588 -35.30348778 2.40072823 C-33.09962439 2.28001897 -30.89557725 2.1632575 -28.69148254 2.04685974 C-27.33508475 1.97271881 -25.97869494 1.89843156 -24.62231445 1.82397461 C-22.86175468 1.72976479 -22.86175468 1.72976479 -21.06562805 1.63365173 C-13.98058076 1.09117385 -7.1250994 0.10923497 0 0 Z " fill="#FCFCFC" transform="translate(212.6875,254.625)"/>
<path d="M0 0 C0.93650391 -0.03738281 1.87300781 -0.07476562 2.83789062 -0.11328125 C4.19237305 -0.13068359 4.19237305 -0.13068359 5.57421875 -0.1484375 C6.79564575 -0.1781665 6.79564575 -0.1781665 8.04174805 -0.20849609 C11.5039492 0.68115671 12.47128073 2.3716833 14.3125 5.375 C15.2097168 8.81323242 15.2097168 8.81323242 15.76171875 12.73046875 C15.91614189 13.78298576 15.91614189 13.78298576 16.07368469 14.85676575 C16.39743849 17.09016971 16.69878298 19.32595758 17 21.5625 C17.21277602 23.04512588 17.42695651 24.52755091 17.64257812 26.00976562 C19.14673449 36.47645763 20.48325467 46.78821015 20.3125 57.375 C14.45441598 61.27693936 8.53947288 60.7702647 1.6875 60.8125 C-8.37573642 61.01928334 -18.1704945 61.75283907 -28.125 63.25 C-29.30642578 63.42619873 -30.48785156 63.60239746 -31.70507812 63.78393555 C-36.69823923 64.5487135 -41.67463749 65.35884526 -46.63671875 66.3046875 C-58.28924206 68.4178016 -69.91495156 68.73983844 -81.73138428 68.84777832 C-83.64980562 68.86582586 -85.56817206 68.8913764 -87.48638916 68.92468262 C-90.2090089 68.96647709 -92.92944905 68.97286187 -95.65234375 68.96875 C-96.47342117 68.98500427 -97.2944986 69.00125854 -98.14045715 69.01800537 C-102.33548678 68.96829702 -104.38170099 68.55945651 -108.06469727 66.33789062 C-113.56325921 60.12635309 -114.1300037 53.8948088 -113.98046875 45.84375 C-113.97622391 44.96722778 -113.97197906 44.09070557 -113.96760559 43.18762207 C-113.9509513 40.41642177 -113.91332509 37.64597664 -113.875 34.875 C-113.85993599 32.98438558 -113.8462506 31.09375964 -113.83398438 29.203125 C-113.80109139 24.59346361 -113.74940255 19.98435938 -113.6875 15.375 C-112.3675 14.715 -111.0475 14.055 -109.6875 13.375 C-109.6875 12.055 -109.6875 10.735 -109.6875 9.375 C-96.09303495 1.20981778 -70.18525549 4.28656602 -54.41021729 3.44171143 C-48.0410015 3.10025862 -41.67211575 2.75296588 -35.30348778 2.40072823 C-33.09962439 2.28001897 -30.89557725 2.1632575 -28.69148254 2.04685974 C-27.33508475 1.97271881 -25.97869494 1.89843156 -24.62231445 1.82397461 C-22.86175468 1.72976479 -22.86175468 1.72976479 -21.06562805 1.63365173 C-13.98058076 1.09117385 -7.1250994 0.10923497 0 0 Z M-66.89575195 12.26220703 C-80.14375038 13.55024115 -93.40618358 14.49932608 -106.6875 15.375 C-106.9363917 26.07734304 -106.61167726 36.69391784 -105.875 47.375 C-105.80490723 48.52661621 -105.73481445 49.67823242 -105.66259766 50.86474609 C-105.58187012 51.94062988 -105.50114258 53.01651367 -105.41796875 54.125 C-105.34989014 55.08921875 -105.28181152 56.0534375 -105.21166992 57.046875 C-104.88644225 59.74062701 -104.88644225 59.74062701 -101.6875 61.375 C-98.44049459 61.68595198 -98.44049459 61.68595198 -94.6953125 61.640625 C-94.00172134 61.64344482 -93.30813019 61.64626465 -92.59352112 61.64916992 C-90.33297475 61.65344932 -88.07298991 61.64082947 -85.8125 61.625 C-84.65652817 61.62034729 -84.65652817 61.62034729 -83.47720337 61.61560059 C-66.32008134 61.5343306 -49.78783538 60.28632666 -32.96166992 56.78417969 C-22.05732601 54.52111681 -11.1878292 54.13211474 -0.08203125 53.76953125 C0.94277344 53.73214844 1.96757812 53.69476563 3.0234375 53.65625 C3.94431152 53.62595703 4.86518555 53.59566406 5.81396484 53.56445312 C8.1002154 53.39109662 10.11516115 53.00997244 12.3125 52.375 C11.20364441 42.91711405 9.91769699 33.50826534 8.3659668 24.11206055 C7.51098583 18.8777711 6.86257143 13.65044691 6.3125 8.375 C-18.1821136 7.87848756 -42.5403211 9.87969218 -66.89575195 12.26220703 Z " fill="#090909" transform="translate(212.6875,254.625)"/>
<path d="M0 0 C4.13587618 0.47721648 7.49795014 2.9122395 11 5 C11.556875 4.505 12.11375 4.01 12.6875 3.5 C15.39516153 1.74367901 16.83379087 1.65770712 20 2 C21 3 21 3 21.25 5.375 C21 8 21 8 19.5 9.8125 C18.7575 10.4003125 18.7575 10.4003125 18 11 C18.845625 11.886875 19.69125 12.77375 20.5625 13.6875 C23.02603251 16.6008348 23.02603251 16.6008348 22.8125 19.875 C22.544375 20.57625 22.27625 21.2775 22 22 C21.01 22.33 20.02 22.66 19 23 C17.24609375 21.85546875 17.24609375 21.85546875 15.4375 20.1875 C14.83808594 19.64480469 14.23867187 19.10210937 13.62109375 18.54296875 C12.39790166 17.37872567 11.19408141 16.19408141 10 15 C7.03 18.465 7.03 18.465 4 22 C2.35 21.67 0.7 21.34 -1 21 C-0.67566492 15.64847115 2.49704824 12.71719957 6 9 C5.21625 8.690625 4.4325 8.38125 3.625 8.0625 C1 7 1 7 -1 6 C-1.042721 4.33388095 -1.04063832 2.66617115 -1 1 C-0.67 0.67 -0.34 0.34 0 0 Z " fill="#0B0B0B" transform="translate(189,265)"/>
</svg>
