<?xml version="1.0" encoding="UTF-8"?>
<svg version="1.1" xmlns="http://www.w3.org/2000/svg" width="500" height="500">
<path d="M0 0 C1.4672695 1.23949842 2.92537964 2.48990598 4.375 3.75 C5.344375 4.51957031 6.31375 5.28914063 7.3125 6.08203125 C24.49866895 20.41198382 34.5639031 43.98779084 37.375 65.75 C37.65410957 69.83835129 37.70937339 73.90301871 37.6875 78 C37.68012817 79.64307129 37.68012817 79.64307129 37.67260742 81.31933594 C37.29141125 107.78803448 25.82398861 131.81905279 6.98608398 150.23486328 C-14.04987115 169.9126567 -39.82580877 176.84308425 -67.921875 176.12890625 C-93.25248686 174.99971883 -116.95611338 162.46478236 -134.19042969 144.08007812 C-150.28203115 125.82534335 -159.08339599 102.94172073 -158.9375 78.5625 C-158.92904053 77.0609436 -158.92904053 77.0609436 -158.92041016 75.52905273 C-158.5159106 50.5562113 -149.31194688 27.50149778 -131.625 9.75 C-130.41650391 8.51443359 -130.41650391 8.51443359 -129.18359375 7.25390625 C-94.65045526 -26.54111935 -38.08211139 -30.11276072 0 0 Z " fill="#000000" transform="translate(430.625,305.25)"/>
<path d="M0 0 C1.07724335 -0.00335861 2.15448669 -0.00671722 3.26437378 -0.01017761 C6.81078251 -0.01964594 10.35714388 -0.02162824 13.90356445 -0.02270508 C16.37262491 -0.02591906 18.84168518 -0.02928324 21.31074524 -0.03279114 C26.47783856 -0.03877103 31.64491518 -0.04063206 36.81201172 -0.04003906 C43.43995068 -0.03993717 50.06778316 -0.05362249 56.69569683 -0.07081127 C61.79053747 -0.08191242 66.88535213 -0.0839589 71.98020363 -0.08342934 C74.42468446 -0.08461102 76.86916594 -0.08904332 79.31363487 -0.0967617 C82.72479183 -0.10652921 86.13571449 -0.10369696 89.546875 -0.09765625 C91.06570534 -0.10608551 91.06570534 -0.10608551 92.61521912 -0.11468506 C94.00924957 -0.10839333 94.00924957 -0.10839333 95.43144226 -0.10197449 C96.23721553 -0.10251925 97.0429888 -0.10306402 97.87317944 -0.1036253 C100.35766218 0.17666199 101.95330074 0.84708881 104.0793457 2.14526367 C105.98636346 4.68795401 106.0852233 6.0012626 105.9543457 9.20776367 C104.92155792 12.6749798 104.12490804 13.32417444 101.0793457 15.14526367 C98.8430872 15.51885128 98.8430872 15.51885128 96.35792542 15.51707458 C95.41200027 15.52383209 94.46607513 15.5305896 93.4914856 15.53755188 C92.46030609 15.52983261 91.42912659 15.52211334 90.36669922 15.51416016 C88.7292852 15.51980988 88.7292852 15.51980988 87.05879211 15.52557373 C84.6863497 15.53201233 82.31388151 15.53167046 79.94143867 15.52538872 C76.1778201 15.5162838 72.41470039 15.52649881 68.65110779 15.54200745 C59.29570952 15.57706248 49.94035625 15.58444548 40.5848999 15.58190918 C32.69173346 15.58004043 24.79884848 15.59409421 16.90574455 15.63038826 C13.21388483 15.64115866 9.52254635 15.62911059 5.83070374 15.61656189 C-11.46113293 15.64236337 -25.86090313 16.97407371 -39.20581055 29.24682617 C-49.84923082 40.50696799 -52.22834457 52.51660125 -52.1953125 67.54296875 C-52.20042343 68.75395737 -52.20553436 69.96494598 -52.21080017 71.21263123 C-52.22226016 74.51036701 -52.22477903 77.80794566 -52.22223687 81.10569596 C-52.22116064 83.871196 -52.22606722 86.63667333 -52.23084229 89.40216845 C-52.24190641 95.93414549 -52.24239276 102.46606502 -52.23632812 108.99804688 C-52.23029417 115.70716559 -52.24259166 122.41607428 -52.26389819 129.12515718 C-52.28158966 134.91147905 -52.28750363 140.69773453 -52.28426045 146.4840824 C-52.282459 149.92841448 -52.28496834 153.37259681 -52.29897499 156.81690407 C-52.311388 160.66455627 -52.30451779 164.51172977 -52.29296875 168.359375 C-52.30061249 169.48028534 -52.30825623 170.60119568 -52.31613159 171.756073 C-52.22430747 185.68057817 -48.75507178 197.2523838 -39.0456543 207.45776367 C-27.03545205 218.69895109 -12.24393672 221.29689353 3.74560547 221.28710938 C5.14499107 221.29232101 5.14499107 221.29232101 6.57264709 221.29763794 C8.58706132 221.30495499 10.60148339 221.31032179 12.61590767 221.3139286 C15.81740302 221.32115015 19.01875001 221.33685997 22.22019958 221.35527039 C31.31914195 221.40746407 40.41800106 221.45564986 49.51708984 221.47119141 C55.09618879 221.48134166 60.67490978 221.5108414 66.25385857 221.55251122 C68.36544864 221.56472432 70.47709231 221.56996044 72.58871651 221.56771278 C96.27760347 221.54870617 113.23284189 226.374772 130.38208008 243.41821289 C134.58252176 247.69236773 138.64310557 252.09554823 142.6965332 256.50854492 C146.65486491 260.80108036 150.79280906 264.89509476 154.9699707 268.97338867 C157.0793457 271.14526367 157.0793457 271.14526367 159.0793457 274.14526367 C159.09336426 272.5268457 159.09336426 272.5268457 159.10766602 270.87573242 C159.14777778 266.84228429 159.21359343 262.80958204 159.28686523 258.77661133 C159.31495273 257.03680053 159.33622764 255.29686503 159.3503418 253.55688477 C159.37194223 251.04403397 159.41867556 248.53266334 159.4699707 246.02026367 C159.47119934 245.25222412 159.47242798 244.48418457 159.47369385 243.69287109 C159.64627022 237.2149993 161.49601357 231.75834627 166.11450195 227.08666992 C167.11803711 226.40411133 167.11803711 226.40411133 168.1418457 225.70776367 C168.81344727 225.23467773 169.48504883 224.7615918 170.17700195 224.27416992 C173.4205611 222.34934735 176.29214815 221.97550895 179.98168945 221.75073242 C194.49868454 220.76036016 206.2625444 219.6675896 218.1184082 210.53588867 C220.0793457 209.14526367 220.0793457 209.14526367 222.0793457 209.14526367 C222.48540039 208.26741211 222.48540039 208.26741211 222.8996582 207.37182617 C224.06817207 205.16635297 225.37383705 203.44471721 226.9543457 201.52026367 C232.51516055 194.24633716 235.18429062 185.88651406 235.22651672 176.77209473 C235.23367203 175.70699677 235.24082733 174.6418988 235.24819946 173.54452515 C235.25088837 172.38603058 235.25357727 171.22753601 235.25634766 170.03393555 C235.26291885 168.80563019 235.26949005 167.57732483 235.27626038 166.3117981 C235.29597313 162.24586744 235.30766022 158.17997621 235.31762695 154.11401367 C235.32167785 152.70860271 235.32579487 151.30319195 235.32997704 149.89778137 C235.34901819 143.28924978 235.36324829 136.68072923 235.371589 130.0721755 C235.38134065 122.47329562 235.40761006 114.87470864 235.4480899 107.27593184 C235.47838471 101.38437912 235.49307067 95.4929097 235.49637002 89.60128069 C235.4987064 86.09138999 235.50747946 82.58181253 235.53283119 79.07200623 C235.56073717 75.14516147 235.55624019 71.21869256 235.54931641 67.29174805 C235.56212646 66.14944733 235.57493652 65.00714661 235.58813477 63.83023071 C235.5045131 50.73201021 231.84892622 39.37884004 222.85668945 29.77026367 C210.52674616 17.88974779 197.11045071 15.83416025 180.65942383 15.75463867 C172.82948906 15.57835496 172.82948906 15.57835496 168.87231445 13.29370117 C167.0793457 11.14526367 167.0793457 11.14526367 166.5793457 8.14526367 C167.12235891 4.88718443 167.76060718 3.46400219 170.0793457 1.14526367 C182.89420951 -3.1263576 201.64324953 -0.08215589 213.8293457 4.89526367 C215.26306658 5.61212411 216.67942959 6.36444403 218.0793457 7.14526367 C219.36711914 7.85102539 219.36711914 7.85102539 220.6809082 8.57104492 C234.91263457 16.96976794 244.14808959 28.44068305 249.31762695 43.99291992 C251.25813356 52.02363188 251.22797243 60.13069443 251.22460938 68.34350586 C251.22964729 70.12831863 251.22964729 70.12831863 251.23478699 71.94918823 C251.24261747 75.18910433 251.24596212 78.42898181 251.24660277 81.66890621 C251.24731738 83.70044918 251.24945942 85.73198559 251.25209999 87.76352692 C251.26133052 94.87189658 251.26543782 101.98024759 251.26464844 109.08862305 C251.26404848 115.68065851 251.27459011 122.27261192 251.2903921 128.86462665 C251.30353336 134.55244156 251.30882958 140.24022987 251.30819303 145.92805982 C251.30793994 149.31259128 251.3106851 152.69704973 251.32137108 156.08156586 C251.33124109 159.86425965 251.32826526 163.64674574 251.32226562 167.42944336 C251.32788513 168.52805695 251.33350464 169.62667053 251.33929443 170.75857544 C251.26524931 189.2627452 246.97430913 204.79798227 233.9152832 218.39916992 C220.03138137 231.32640714 204.13599812 236.08203927 185.5612793 236.71630859 C181.85385547 236.87600878 179.31249585 237.3689147 176.0793457 239.14526367 C176.06476318 240.32032471 176.05018066 241.49538574 176.03515625 242.70605469 C175.97695059 247.0878664 175.89971963 251.46917616 175.81689453 255.85058594 C175.78374963 257.74275534 175.75568553 259.63502113 175.73291016 261.52734375 C175.6991715 264.25586821 175.64684705 266.98351767 175.59106445 269.71166992 C175.58467453 270.5504921 175.57828461 271.38931427 175.57170105 272.2535553 C175.43944727 277.60073283 174.59876738 281.40066211 172.0793457 286.14526367 C168.44524922 289.59765533 165.80254752 291.0152107 160.7668457 291.39526367 C154.36105513 290.96097279 150.5089649 287.96644264 146.1418457 283.45776367 C145.27043945 282.56057617 144.3990332 281.66338867 143.5012207 280.73901367 C141.57859766 278.67994642 139.71663581 276.60236235 137.8918457 274.45776367 C132.5691702 268.22882927 126.59346716 262.58057994 120.77246094 256.82324219 C119.28405162 255.34813949 117.80406105 253.86455228 116.32543945 252.37963867 C101.91265065 238.04204703 86.37507302 236.70453744 66.79837227 236.73457336 C63.57981659 236.73910654 60.36179496 236.7248975 57.14329529 236.70617676 C50.30948703 236.6696402 43.47573718 236.65572666 36.6418457 236.64526367 C28.71691776 236.63312343 20.79225457 236.61133072 12.86744499 236.56526184 C9.72024077 236.55183154 6.57338363 236.55583609 3.42616272 236.56066895 C-15.31235535 236.50914829 -34.88455259 234.22495576 -48.9206543 220.14526367 C-48.9206543 219.48526367 -48.9206543 218.82526367 -48.9206543 218.14526367 C-49.4878418 217.93772461 -50.0550293 217.73018555 -50.6394043 217.51635742 C-58.54479823 212.76499908 -63.74717243 200.7444492 -65.9206543 192.14526367 C-68.52321682 178.12671042 -68.21309059 163.97196724 -68.1862793 149.77026367 C-68.18762982 147.23071251 -68.18957356 144.69116161 -68.19207764 142.15161133 C-68.19501069 136.85325115 -68.19098615 131.5549419 -68.18139648 126.2565918 C-68.1705169 120.17625994 -68.17404431 114.09606233 -68.1850493 108.01573372 C-68.19530358 102.10827255 -68.19411078 96.2008614 -68.18828583 90.293396 C-68.18696294 87.80580628 -68.18854864 85.31821308 -68.19324493 82.83062744 C-68.22929728 58.37396093 -67.98797816 36.97266839 -50.4206543 18.08276367 C-36.49942397 4.66244718 -18.91610349 -0.00851731 0 0 Z " fill="#000000" transform="translate(112.920654296875,19.854736328125)"/>
<path d="M0 0 C1.23219017 -0.00744736 1.23219017 -0.00744736 2.48927307 -0.01504517 C5.20851477 -0.02965784 7.92769814 -0.03646705 10.64697266 -0.04199219 C12.53642783 -0.04774406 14.42588299 -0.05350179 16.31533813 -0.05926514 C20.27809928 -0.06977236 24.24084016 -0.07561696 28.20361328 -0.07910156 C33.28017399 -0.08458787 38.35646671 -0.10861999 43.43294334 -0.13707352 C47.3363015 -0.1557006 51.23959508 -0.16090552 55.14299393 -0.16243744 C57.01448661 -0.16546398 58.88597815 -0.17349254 60.75742722 -0.18662262 C63.37625256 -0.20368576 65.9944228 -0.20180238 68.61328125 -0.1953125 C69.38540451 -0.20452728 70.15752777 -0.21374207 70.95304871 -0.22323608 C75.89466753 -0.18489268 79.37555231 0.60064996 82.93603516 4.16113281 C83.31103516 7.47363281 83.31103516 7.47363281 82.93603516 11.16113281 C80.04582387 14.34794784 78.36786274 15.11049292 74.0637207 15.61523438 C72.56658238 15.61460647 71.06934267 15.59232409 69.57275391 15.55175781 C68.78077103 15.54609802 67.98878815 15.54043823 67.17280579 15.53460693 C64.65575422 15.51230589 62.14015273 15.4621242 59.62353516 15.41113281 C57.91196725 15.39105957 56.20037691 15.37281024 54.48876953 15.35644531 C50.30397031 15.31246206 46.12024816 15.24348051 41.93603516 15.16113281 C41.94269699 16.12944031 41.94935883 17.0977478 41.95622253 18.09539795 C42.01702189 27.2181253 42.06200212 36.34081158 42.09147167 45.46369553 C42.10713158 50.15394277 42.12837577 54.84402653 42.16235352 59.53417969 C42.19493539 64.05994525 42.21288573 68.58555351 42.22066689 73.11142731 C42.2262125 74.83862027 42.23704169 76.56580456 42.25322533 78.2929306 C42.27498428 80.71110174 42.27800276 83.12862181 42.27661133 85.546875 C42.28739716 86.2618515 42.29818298 86.976828 42.30929565 87.71347046 C42.29019084 90.77933834 42.09507959 92.87456594 40.59443665 95.57843018 C38.13760898 97.92311429 36.28882972 98.09407692 32.93603516 98.16113281 C30.12353516 96.91113281 30.12353516 96.91113281 27.93603516 95.16113281 C26.75613483 91.62143184 26.80384621 88.43385802 26.82250977 84.75219727 C26.82236374 84.00073425 26.82221771 83.24927124 26.82206726 82.47503662 C26.82276387 79.99146639 26.83054448 77.50797119 26.83837891 75.02441406 C26.84024398 73.30234315 26.84166746 71.58027171 26.84266663 69.85820007 C26.84648475 65.3257399 26.85630905 60.79331177 26.86737061 56.26086426 C26.87759985 51.63582798 26.88216749 47.01078652 26.88720703 42.38574219 C26.89793193 33.31085832 26.91499993 24.23599823 26.93603516 15.16113281 C25.33949097 15.19255371 25.33949097 15.19255371 23.71069336 15.22460938 C19.7505445 15.29717244 15.79045406 15.34299132 11.82983398 15.38085938 C10.1178193 15.40093786 8.40587288 15.42820673 6.6940918 15.46289062 C4.22899508 15.51157682 1.76480726 15.53413854 -0.70068359 15.55175781 C-1.84315804 15.58272552 -1.84315804 15.58272552 -3.00871277 15.61431885 C-6.69217915 15.6158637 -8.8740934 15.27549266 -12.05541992 13.359375 C-14.06396484 11.16113281 -14.06396484 11.16113281 -14.56396484 7.59863281 C-14.06396484 4.16113281 -14.06396484 4.16113281 -12.75146484 2.28613281 C-8.77507407 -0.36479437 -4.58142588 0.00659827 0 0 Z " fill="#000000" transform="translate(170.06396484375,88.8388671875)"/>
<path d="M0 0 C1.0415625 -0.020625 2.083125 -0.04125 3.15625 -0.0625 C12.63594681 -0.1109895 12.63594681 -0.1109895 16.625 3.25 C17.625 4.25 17.625 4.25 18 7.5625 C17.625 11.25 17.625 11.25 15.47875977 13.44726562 C12.19955138 15.51875803 10.43421465 15.76453405 6.58984375 15.78125 C5.45095703 15.78640625 4.31207031 15.7915625 3.13867188 15.796875 C1.95853516 15.78140625 0.77839844 15.7659375 -0.4375 15.75 C-2.21350586 15.77320313 -2.21350586 15.77320313 -4.02539062 15.796875 C-5.73178711 15.78914063 -5.73178711 15.78914063 -7.47265625 15.78125 C-8.50914307 15.77673828 -9.54562988 15.77222656 -10.61352539 15.76757812 C-14.07704222 15.11841751 -15.26716887 14.03272185 -17.375 11.25 C-18.10634328 5.29477612 -18.10634328 5.29477612 -16.0625 2.375 C-11.29950606 -0.80032929 -5.48764518 0.02696632 0 0 Z " fill="#000000" transform="translate(249.375,19.75)"/>
</svg>
